# xmcd
#
# Track frame offsets: 
#        150
#        18609
#        33075
#        60939
#        76981
#        90470
#        115766
#        136757
#        163797
#        178002
#        195639
#        213277
#        232189
#
# Disc length: 3347 seconds
#
# Revision: 1
# Processed by: cddbd v1.5.2PL0 Copyright (c) Steve Scherf et al.
# Submitted via: ExactAudioCopy v0.99pb3
#
DISCID=a00d110d
DTITLE=Wayfaring Strangers - In The Valley
DYEAR=2002
DGENRE=Unusual
TTITLE0=Helpline
TTITLE1=Swamp Boogie
TTITLE2=Wetlander Worksong
TTITLE3=Dew On A Thorn
TTITLE4=Good Heart
TTITLE5=Fun Run
TTITLE6=Where Have You Gone
TTITLE7=Birthmark
TTITLE8=You Do The Dishes
TTITLE9=Deep In The Bone
TTITLE10=Screaming To The West
TTITLE11=Willie Nelson
TTITLE12=Expiry Date
EXTD=
EXTT0=
EXTT1=
EXTT2=
EXTT3=
EXTT4=
EXTT5=
EXTT6=
EXTT7=
EXTT8=
EXTT9=
EXTT10=
EXTT11=
EXTT12=
PLAYORDER=
